<svg width="228" height="47" viewBox="0 0 228 47" fill="none" xmlns="http://www.w3.org/2000/svg">
<path d="M24.0009 1.5C11.851 1.5 2.00146 11.3496 2.00146 23.4995C2.00146 26.4013 2.56959 29.1662 3.59037 31.7027H44.4115C45.4322 29.1663 46.0005 26.4012 46.0005 23.4995C46.0005 11.3496 36.1509 1.5 24.0009 1.5Z" fill="#F4F5F6"/>
<path d="M4.83405 34.2935C5.09542 34.7565 5.37042 35.2112 5.66362 35.6527H27.0314C27.5152 35.6527 27.9056 36.0637 27.9056 36.5684V37.3309C27.9056 37.8356 27.5152 38.2435 27.0314 38.2435H7.70564C11.7309 42.6882 17.5314 45.499 24.0003 45.499C32.2257 45.499 39.3888 40.9797 43.1633 34.2935H4.83405ZM30.8123 35.6527H38.7474C39.2312 35.6527 39.6216 36.0637 39.6216 36.5684V37.3309C39.6216 37.8356 39.2312 38.2435 38.7474 38.2435H30.8123C30.3285 38.2435 29.9381 37.8356 29.9381 37.3309V36.5684C29.9381 36.0637 30.3285 35.6527 30.8123 35.6527ZM14.055 39.877H33.9423C34.426 39.877 34.8197 40.285 34.8197 40.7896V41.7181C34.8197 42.2227 34.426 42.6306 33.9423 42.6306H14.055C13.5713 42.6306 13.1808 42.2227 13.1808 41.7181V40.7896C13.1808 40.285 13.5713 39.8771 14.055 39.877Z" fill="#F4F5F6"/>
<path d="M5.6637 35.6527C6.27465 36.5725 6.96707 37.4279 7.70572 38.2435H27.0315C27.5153 38.2435 27.9057 37.8356 27.9057 37.331V36.5684C27.9057 36.0638 27.5153 35.6527 27.0315 35.6527H5.6637Z" fill="#00C2FF"/>
<path d="M14.055 39.8771C13.5713 39.8772 13.1808 40.285 13.1808 40.7897V41.7181C13.1808 42.2228 13.5713 42.6306 14.055 42.6306H33.9423C34.426 42.6306 34.8197 42.2228 34.8197 41.7181V40.7897C34.8197 40.285 34.426 39.8771 33.9423 39.8771H14.055Z" fill="#00C2FF"/>
<path d="M30.8124 35.6527C30.3286 35.6527 29.9381 36.0638 29.9381 36.5684V37.331C29.9381 37.8356 30.3286 38.2435 30.8124 38.2435H38.7474C39.2312 38.2435 39.6217 37.8356 39.6217 37.331V36.5684C39.6217 36.0638 39.2312 35.6527 38.7474 35.6527H30.8124Z" fill="#00C2FF"/>
<path d="M16.3595 11.3341V31.299" stroke="#FF8723" stroke-width="3" stroke-miterlimit="10" stroke-linejoin="round"/>
<path d="M22.8602 9.63382V31.299" stroke="#FF8723" stroke-width="3" stroke-miterlimit="10" stroke-linejoin="round"/>
<path d="M30.2979 7.08797L37.275 11.164V31.299H30.2979V7.08797Z" fill="#FF8723" stroke="#FF8723" stroke-width="3" stroke-miterlimit="10" stroke-linejoin="round"/>
<path d="M10.7223 13.1642L30.2978 7.08797V31.299H10.7223V13.1642Z" stroke="#FF8723" stroke-width="3" stroke-miterlimit="10" stroke-linejoin="round"/>
<path d="M3.58813 31.7027C3.94794 32.5966 4.36327 33.4622 4.83249 34.2935H43.1617C43.6311 33.4621 44.0496 32.5968 44.4093 31.7027H3.58813Z" fill="#00C2FF"/>
<path d="M2 23.5015C2 11.3519 11.8492 1.50283 23.9986 1.50283C36.1482 1.50283 45.9972 11.3519 45.9972 23.5015C45.9972 35.6509 36.1482 45.5001 23.9986 45.5001C11.8492 45.5001 2 35.6509 2 23.5015Z" stroke="#00C2FF" stroke-width="3" stroke-miterlimit="10" stroke-linejoin="round"/>
<path d="M55.2485 19.5V8.22H57.2805V13.02H59.2005L58.7845 13.292L62.1125 8.22H64.3846L60.6725 13.676L59.8885 13.1C60.6139 13.2067 61.2165 13.4573 61.6965 13.852C62.1872 14.236 62.6139 14.78 62.9766 15.484L64.9766 19.5H62.7526L61.2005 16.252C60.9339 15.6867 60.6139 15.2867 60.2405 15.052C59.8779 14.8173 59.4139 14.7 58.8485 14.7H57.2805V19.5H55.2485ZM66.2474 22.956V13.436C66.2474 13.1053 66.2368 12.7693 66.2154 12.428C66.1941 12.0867 66.1621 11.7507 66.1194 11.42H68.0554L68.2314 13.116H68.0554C68.2154 12.5507 68.5514 12.1027 69.0634 11.772C69.5861 11.4307 70.1888 11.26 70.8714 11.26C71.5861 11.26 72.2101 11.4307 72.7434 11.772C73.2768 12.1027 73.6928 12.5827 73.9914 13.212C74.2901 13.8307 74.4394 14.5773 74.4394 15.452C74.4394 16.3267 74.2901 17.0787 73.9914 17.708C73.6928 18.3373 73.2768 18.8227 72.7434 19.164C72.2101 19.4947 71.5861 19.66 70.8714 19.66C70.1994 19.66 69.6074 19.4947 69.0954 19.164C68.5834 18.8333 68.2421 18.3907 68.0714 17.836H68.2474V22.956H66.2474ZM70.3114 18.124C70.9514 18.124 71.4634 17.9053 71.8474 17.468C72.2314 17.02 72.4234 16.348 72.4234 15.452C72.4234 14.556 72.2314 13.8893 71.8474 13.452C71.4634 13.0147 70.9514 12.796 70.3114 12.796C69.6821 12.796 69.1754 13.0147 68.7914 13.452C68.4074 13.8893 68.2154 14.556 68.2154 15.452C68.2154 16.348 68.4074 17.02 68.7914 17.468C69.1754 17.9053 69.6821 18.124 70.3114 18.124ZM79.508 19.66C78.804 19.66 78.1854 19.4947 77.652 19.164C77.1187 18.8227 76.7027 18.3373 76.404 17.708C76.1054 17.0787 75.956 16.3267 75.956 15.452C75.956 14.5773 76.1054 13.8307 76.404 13.212C76.7027 12.5827 77.1187 12.1027 77.652 11.772C78.1854 11.4307 78.804 11.26 79.508 11.26C80.1907 11.26 80.788 11.4307 81.3 11.772C81.8227 12.1027 82.1694 12.5507 82.34 13.116H82.164L82.34 11.42H84.26C84.228 11.7507 84.196 12.0867 84.1641 12.428C84.1427 12.7693 84.132 13.1053 84.132 13.436V19.5H82.148L82.132 17.836H82.324C82.1534 18.3907 81.8067 18.8333 81.284 19.164C80.7614 19.4947 80.1694 19.66 79.508 19.66ZM80.068 18.124C80.6974 18.124 81.204 17.9053 81.588 17.468C81.972 17.02 82.164 16.348 82.164 15.452C82.164 14.556 81.972 13.8893 81.588 13.452C81.204 13.0147 80.6974 12.796 80.068 12.796C79.4387 12.796 78.932 13.0147 78.548 13.452C78.164 13.8893 77.972 14.556 77.972 15.452C77.972 16.348 78.1587 17.02 78.532 17.468C78.916 17.9053 79.428 18.124 80.068 18.124ZM90.2407 19.66C89.4087 19.66 88.678 19.4893 88.0487 19.148C87.43 18.8067 86.95 18.3213 86.6087 17.692C86.2673 17.052 86.0967 16.2947 86.0967 15.42C86.0967 14.5453 86.2673 13.7987 86.6087 13.18C86.9607 12.5613 87.446 12.0867 88.0647 11.756C88.6833 11.4253 89.4087 11.26 90.2407 11.26C90.774 11.26 91.2913 11.3453 91.7927 11.516C92.3047 11.676 92.7207 11.9107 93.0407 12.22L92.4327 13.612C92.1447 13.3453 91.8193 13.148 91.4567 13.02C91.1047 12.8813 90.758 12.812 90.4167 12.812C89.702 12.812 89.142 13.036 88.7367 13.484C88.342 13.932 88.1447 14.5827 88.1447 15.436C88.1447 16.2893 88.342 16.9453 88.7367 17.404C89.142 17.8627 89.702 18.092 90.4167 18.092C90.7473 18.092 91.0887 18.028 91.4407 17.9C91.8033 17.772 92.134 17.5747 92.4327 17.308L93.0407 18.684C92.71 18.9933 92.2887 19.2333 91.7767 19.404C91.2753 19.5747 90.7633 19.66 90.2407 19.66ZM94.7459 19.5V11.42H96.7299V14.588H97.9459L100.314 11.42H102.458L99.4819 15.452L99.0499 14.828C99.3486 14.86 99.6099 14.94 99.8339 15.068C100.069 15.196 100.287 15.3773 100.49 15.612C100.703 15.836 100.911 16.124 101.114 16.476L102.81 19.5H100.682L99.3059 17.068C99.1673 16.8227 99.0286 16.6307 98.8899 16.492C98.7513 16.3533 98.5966 16.2573 98.4259 16.204C98.2553 16.1507 98.0473 16.124 97.8019 16.124H96.7299V19.5H94.7459ZM107.583 19.66C106.751 19.66 106.031 19.4893 105.423 19.148C104.815 18.8067 104.34 18.3213 103.999 17.692C103.668 17.0627 103.503 16.316 103.503 15.452C103.503 14.588 103.668 13.8467 103.999 13.228C104.34 12.5987 104.815 12.1133 105.423 11.772C106.031 11.4307 106.751 11.26 107.583 11.26C108.415 11.26 109.135 11.4307 109.743 11.772C110.362 12.1133 110.836 12.5987 111.167 13.228C111.508 13.8467 111.679 14.588 111.679 15.452C111.679 16.316 111.508 17.0627 111.167 17.692C110.836 18.3213 110.362 18.8067 109.743 19.148C109.135 19.4893 108.415 19.66 107.583 19.66ZM107.583 18.124C108.212 18.124 108.714 17.9053 109.087 17.468C109.46 17.02 109.647 16.348 109.647 15.452C109.647 14.556 109.46 13.8893 109.087 13.452C108.714 13.0147 108.212 12.796 107.583 12.796C106.954 12.796 106.452 13.0147 106.079 13.452C105.706 13.8893 105.519 14.556 105.519 15.452C105.519 16.348 105.706 17.02 106.079 17.468C106.452 17.9053 106.954 18.124 107.583 18.124ZM113.574 19.5V11.42H117.878C118.891 11.42 119.633 11.6067 120.102 11.98C120.571 12.3427 120.806 12.86 120.806 13.532C120.806 14.044 120.635 14.4707 120.294 14.812C119.953 15.1533 119.499 15.3667 118.934 15.452V15.228C119.627 15.2707 120.161 15.4733 120.534 15.836C120.907 16.1987 121.094 16.668 121.094 17.244C121.094 17.9373 120.827 18.4867 120.294 18.892C119.761 19.2973 119.003 19.5 118.022 19.5H113.574ZM115.43 18.268H117.814C118.283 18.268 118.641 18.172 118.886 17.98C119.142 17.788 119.27 17.5053 119.27 17.132C119.27 16.7587 119.142 16.476 118.886 16.284C118.641 16.092 118.283 15.996 117.814 15.996H115.43V18.268ZM115.43 14.764H117.638C118.065 14.764 118.395 14.6733 118.63 14.492C118.865 14.3 118.982 14.0333 118.982 13.692C118.982 13.3507 118.865 13.0893 118.63 12.908C118.395 12.7267 118.065 12.636 117.638 12.636H115.43V14.764ZM126.552 19.66C125.72 19.66 125 19.4893 124.392 19.148C123.784 18.8067 123.309 18.3213 122.968 17.692C122.637 17.0627 122.472 16.316 122.472 15.452C122.472 14.588 122.637 13.8467 122.968 13.228C123.309 12.5987 123.784 12.1133 124.392 11.772C125 11.4307 125.72 11.26 126.552 11.26C127.384 11.26 128.104 11.4307 128.712 11.772C129.33 12.1133 129.805 12.5987 130.136 13.228C130.477 13.8467 130.648 14.588 130.648 15.452C130.648 16.316 130.477 17.0627 130.136 17.692C129.805 18.3213 129.33 18.8067 128.712 19.148C128.104 19.4893 127.384 19.66 126.552 19.66ZM126.552 18.124C127.181 18.124 127.682 17.9053 128.056 17.468C128.429 17.02 128.616 16.348 128.616 15.452C128.616 14.556 128.429 13.8893 128.056 13.452C127.682 13.0147 127.181 12.796 126.552 12.796C125.922 12.796 125.421 13.0147 125.048 13.452C124.674 13.8893 124.488 14.556 124.488 15.452C124.488 16.348 124.674 17.02 125.048 17.468C125.421 17.9053 125.922 18.124 126.552 18.124ZM132.713 15.884V14.3H137.577V15.884H132.713ZM139.459 13.852C139.459 12.668 139.672 11.644 140.099 10.78C140.536 9.916 141.16 9.24933 141.971 8.78C142.781 8.3 143.747 8.06 144.867 8.06C145.976 8.06 146.936 8.3 147.747 8.78C148.557 9.24933 149.181 9.916 149.619 10.78C150.067 11.644 150.291 12.6627 150.291 13.836C150.291 15.02 150.067 16.0493 149.619 16.924C149.181 17.788 148.557 18.46 147.747 18.94C146.936 19.42 145.976 19.66 144.867 19.66C143.747 19.66 142.781 19.42 141.971 18.94C141.171 18.46 140.552 17.788 140.115 16.924C139.677 16.0493 139.459 15.0253 139.459 13.852ZM141.619 13.852C141.619 15.1213 141.891 16.1133 142.435 16.828C142.979 17.5427 143.789 17.9 144.867 17.9C145.912 17.9 146.717 17.5427 147.283 16.828C147.848 16.1133 148.131 15.1213 148.131 13.852C148.131 12.572 147.848 11.58 147.283 10.876C146.728 10.172 145.923 9.82 144.867 9.82C143.789 9.82 142.979 10.172 142.435 10.876C141.891 11.58 141.619 12.572 141.619 13.852ZM155.284 19.66C154.559 19.66 153.876 19.5747 153.236 19.404C152.607 19.2333 152.079 18.988 151.652 18.668L152.212 17.356C152.607 17.644 153.066 17.8627 153.588 18.012C154.122 18.1613 154.682 18.236 155.268 18.236C155.951 18.236 156.447 18.1453 156.756 17.964C157.076 17.772 157.236 17.4947 157.236 17.132C157.236 16.7907 157.114 16.5347 156.868 16.364C156.623 16.1827 156.26 16.092 155.78 16.092H153.684V14.716H155.588C156.026 14.716 156.362 14.6307 156.596 14.46C156.831 14.2893 156.948 14.0493 156.948 13.74C156.948 13.4093 156.804 13.148 156.516 12.956C156.239 12.764 155.78 12.668 155.14 12.668C154.586 12.668 154.079 12.7373 153.62 12.876C153.162 13.004 152.73 13.196 152.324 13.452L151.78 12.204C152.218 11.8947 152.746 11.66 153.364 11.5C153.994 11.34 154.676 11.26 155.412 11.26C156.49 11.26 157.316 11.4573 157.892 11.852C158.468 12.2467 158.756 12.8067 158.756 13.532C158.756 14.0227 158.586 14.444 158.244 14.796C157.914 15.148 157.466 15.3667 156.9 15.452V15.228C157.562 15.2707 158.084 15.468 158.468 15.82C158.852 16.172 159.044 16.6467 159.044 17.244C159.044 17.98 158.719 18.5667 158.068 19.004C157.418 19.4413 156.49 19.66 155.284 19.66ZM164.761 19.66C163.406 19.66 162.345 19.2867 161.577 18.54C160.809 17.7933 160.425 16.7693 160.425 15.468C160.425 14.6253 160.59 13.8893 160.921 13.26C161.251 12.6307 161.71 12.14 162.297 11.788C162.894 11.436 163.587 11.26 164.377 11.26C165.155 11.26 165.806 11.4253 166.329 11.756C166.851 12.0867 167.246 12.5507 167.513 13.148C167.79 13.7453 167.929 14.444 167.929 15.244V15.772H162.041V14.716H166.505L166.233 14.94C166.233 14.1933 166.073 13.6227 165.753 13.228C165.443 12.8333 164.99 12.636 164.393 12.636C163.731 12.636 163.219 12.8707 162.857 13.34C162.505 13.8093 162.329 14.4653 162.329 15.308V15.516C162.329 16.3907 162.542 17.0467 162.969 17.484C163.406 17.9107 164.019 18.124 164.809 18.124C165.267 18.124 165.694 18.0653 166.089 17.948C166.494 17.82 166.878 17.6173 167.241 17.34L167.833 18.684C167.449 18.9933 166.99 19.2333 166.457 19.404C165.923 19.5747 165.358 19.66 164.761 19.66ZM164.969 9.948V8.108H166.809V9.948H164.969ZM161.945 9.948V8.108H163.785V9.948H161.945ZM169.841 22.956V13.436C169.841 13.1053 169.831 12.7693 169.809 12.428C169.788 12.0867 169.756 11.7507 169.713 11.42H171.649L171.825 13.116H171.649C171.809 12.5507 172.145 12.1027 172.657 11.772C173.18 11.4307 173.783 11.26 174.465 11.26C175.18 11.26 175.804 11.4307 176.337 11.772C176.871 12.1027 177.287 12.5827 177.585 13.212C177.884 13.8307 178.033 14.5773 178.033 15.452C178.033 16.3267 177.884 17.0787 177.585 17.708C177.287 18.3373 176.871 18.8227 176.337 19.164C175.804 19.4947 175.18 19.66 174.465 19.66C173.793 19.66 173.201 19.4947 172.689 19.164C172.177 18.8333 171.836 18.3907 171.665 17.836H171.841V22.956H169.841ZM173.905 18.124C174.545 18.124 175.057 17.9053 175.441 17.468C175.825 17.02 176.017 16.348 176.017 15.452C176.017 14.556 175.825 13.8893 175.441 13.452C175.057 13.0147 174.545 12.796 173.905 12.796C173.276 12.796 172.769 13.0147 172.385 13.452C172.001 13.8893 171.809 14.556 171.809 15.452C171.809 16.348 172.001 17.02 172.385 17.468C172.769 17.9053 173.276 18.124 173.905 18.124ZM179.918 19.5V11.42H181.902V14.588H185.55V11.42H187.534V19.5H185.55V16.124H181.902V19.5H179.918ZM193.52 19.66C192.688 19.66 191.968 19.4893 191.36 19.148C190.752 18.8067 190.278 18.3213 189.936 17.692C189.606 17.0627 189.44 16.316 189.44 15.452C189.44 14.588 189.606 13.8467 189.936 13.228C190.278 12.5987 190.752 12.1133 191.36 11.772C191.968 11.4307 192.688 11.26 193.52 11.26C194.352 11.26 195.072 11.4307 195.68 11.772C196.299 12.1133 196.774 12.5987 197.104 13.228C197.446 13.8467 197.616 14.588 197.616 15.452C197.616 16.316 197.446 17.0627 197.104 17.692C196.774 18.3213 196.299 18.8067 195.68 19.148C195.072 19.4893 194.352 19.66 193.52 19.66ZM193.52 18.124C194.15 18.124 194.651 17.9053 195.024 17.468C195.398 17.02 195.584 16.348 195.584 15.452C195.584 14.556 195.398 13.8893 195.024 13.452C194.651 13.0147 194.15 12.796 193.52 12.796C192.891 12.796 192.39 13.0147 192.016 13.452C191.643 13.8893 191.456 14.556 191.456 15.452C191.456 16.348 191.643 17.02 192.016 17.468C192.39 17.9053 192.891 18.124 193.52 18.124ZM203.48 19.66C202.125 19.66 201.064 19.2867 200.296 18.54C199.528 17.7933 199.144 16.7693 199.144 15.468C199.144 14.6253 199.309 13.8893 199.64 13.26C199.97 12.6307 200.429 12.14 201.016 11.788C201.613 11.436 202.306 11.26 203.096 11.26C203.874 11.26 204.525 11.4253 205.048 11.756C205.57 12.0867 205.965 12.5507 206.232 13.148C206.509 13.7453 206.648 14.444 206.648 15.244V15.772H200.76V14.716H205.224L204.952 14.94C204.952 14.1933 204.792 13.6227 204.472 13.228C204.162 12.8333 203.709 12.636 203.112 12.636C202.45 12.636 201.938 12.8707 201.576 13.34C201.224 13.8093 201.048 14.4653 201.048 15.308V15.516C201.048 16.3907 201.261 17.0467 201.688 17.484C202.125 17.9107 202.738 18.124 203.528 18.124C203.986 18.124 204.413 18.0653 204.808 17.948C205.213 17.82 205.597 17.6173 205.96 17.34L206.552 18.684C206.168 18.9933 205.709 19.2333 205.176 19.404C204.642 19.5747 204.077 19.66 203.48 19.66ZM55.2485 39.5V37.98L58.9925 34.076C59.4619 33.5853 59.8085 33.132 60.0325 32.716C60.2565 32.3 60.3685 31.8733 60.3685 31.436C60.3685 30.892 60.1979 30.4813 59.8565 30.204C59.5152 29.9267 59.0192 29.788 58.3685 29.788C57.8459 29.788 57.3445 29.884 56.8645 30.076C56.3845 30.2573 55.9152 30.5453 55.4565 30.94L54.7845 29.404C55.2432 28.9987 55.8085 28.6733 56.4805 28.428C57.1632 28.1827 57.8779 28.06 58.6245 28.06C59.8405 28.06 60.7739 28.332 61.4245 28.876C62.0752 29.42 62.4005 30.1987 62.4005 31.212C62.4005 31.916 62.2352 32.588 61.9045 33.228C61.5739 33.8573 61.0619 34.5187 60.3685 35.212L57.2485 38.332V37.788H62.8485V39.5H55.2485ZM64.6663 35.884V34.3H69.5303V35.884H64.6663ZM74.9299 39.66C74.2259 39.66 73.6073 39.4947 73.0739 39.164C72.5406 38.8227 72.1246 38.3373 71.8259 37.708C71.5273 37.0787 71.3779 36.3267 71.3779 35.452C71.3779 34.5773 71.5273 33.8307 71.8259 33.212C72.1246 32.5827 72.5406 32.1027 73.0739 31.772C73.6073 31.4307 74.2259 31.26 74.9299 31.26C75.6126 31.26 76.2099 31.4307 76.7219 31.772C77.2446 32.1027 77.5913 32.5507 77.7619 33.116H77.5859L77.7619 31.42H79.6819C79.6499 31.7507 79.6179 32.0867 79.5859 32.428C79.5646 32.7693 79.5539 33.1053 79.5539 33.436V39.5H77.5699L77.5539 37.836H77.7459C77.5753 38.3907 77.2286 38.8333 76.7059 39.164C76.1833 39.4947 75.5913 39.66 74.9299 39.66ZM75.4899 38.124C76.1193 38.124 76.6259 37.9053 77.0099 37.468C77.3939 37.02 77.5859 36.348 77.5859 35.452C77.5859 34.556 77.3939 33.8893 77.0099 33.452C76.6259 33.0147 76.1193 32.796 75.4899 32.796C74.8606 32.796 74.3539 33.0147 73.9699 33.452C73.5859 33.8893 73.3939 34.556 73.3939 35.452C73.3939 36.348 73.5806 37.02 73.9539 37.468C74.3379 37.9053 74.8499 38.124 75.4899 38.124ZM81.2145 39.5L82.4465 37.372C82.6599 37.0093 82.9212 36.7213 83.2305 36.508C83.5505 36.284 83.8812 36.172 84.2225 36.172H84.5745L84.5585 36.348C83.6092 36.348 82.8785 36.14 82.3665 35.724C81.8545 35.308 81.5985 34.7 81.5985 33.9C81.5985 33.1107 81.8599 32.5027 82.3825 32.076C82.9159 31.6387 83.6945 31.42 84.7185 31.42H88.7345V39.5H86.9105V36.652H85.9985C85.6679 36.652 85.3745 36.7427 85.1185 36.924C84.8732 37.1053 84.6652 37.34 84.4945 37.628L83.4385 39.5H81.2145ZM85.1025 35.356H86.9105V32.716H85.1025C84.5585 32.716 84.1479 32.8333 83.8705 33.068C83.6039 33.3027 83.4705 33.6227 83.4705 34.028C83.4705 34.4547 83.6039 34.7853 83.8705 35.02C84.1479 35.244 84.5585 35.356 85.1025 35.356ZM99.2582 39.66C98.2875 39.66 97.4235 39.5427 96.6662 39.308C95.9088 39.0627 95.2688 38.7267 94.7462 38.3L95.4022 36.78C95.8822 37.164 96.4262 37.4573 97.0342 37.66C97.6422 37.852 98.3355 37.948 99.1142 37.948C100.053 37.948 100.741 37.804 101.178 37.516C101.616 37.2173 101.834 36.7747 101.834 36.188C101.834 35.644 101.653 35.244 101.29 34.988C100.928 34.7213 100.368 34.588 99.6102 34.588H96.7782V32.972H99.3542C100.08 32.972 100.624 32.844 100.986 32.588C101.36 32.3213 101.546 31.9267 101.546 31.404C101.546 30.9027 101.349 30.508 100.954 30.22C100.56 29.9213 99.9515 29.772 99.1302 29.772C98.4795 29.772 97.8555 29.868 97.2582 30.06C96.6608 30.252 96.1275 30.5347 95.6582 30.908L95.0022 29.388C95.5035 28.9613 96.1328 28.636 96.8902 28.412C97.6582 28.1773 98.4688 28.06 99.3222 28.06C100.72 28.06 101.77 28.3427 102.474 28.908C103.189 29.4733 103.546 30.2147 103.546 31.132C103.546 31.8147 103.344 32.396 102.938 32.876C102.533 33.3453 101.978 33.66 101.274 33.82V33.58C102.074 33.6973 102.698 33.996 103.146 34.476C103.605 34.956 103.834 35.5853 103.834 36.364C103.834 37.0253 103.664 37.6067 103.322 38.108C102.992 38.5987 102.485 38.9827 101.802 39.26C101.13 39.5267 100.282 39.66 99.2582 39.66ZM108.867 39.66C108.163 39.66 107.545 39.4947 107.011 39.164C106.478 38.8227 106.062 38.3373 105.763 37.708C105.465 37.0787 105.315 36.3267 105.315 35.452C105.315 34.5773 105.465 33.8307 105.763 33.212C106.062 32.5827 106.478 32.1027 107.011 31.772C107.545 31.4307 108.163 31.26 108.867 31.26C109.55 31.26 110.147 31.4307 110.659 31.772C111.182 32.1027 111.529 32.5507 111.699 33.116H111.523L111.699 31.42H113.619C113.587 31.7507 113.555 32.0867 113.523 32.428C113.502 32.7693 113.491 33.1053 113.491 33.436V39.5H111.507L111.491 37.836H111.683C111.513 38.3907 111.166 38.8333 110.643 39.164C110.121 39.4947 109.529 39.66 108.867 39.66ZM109.427 38.124C110.057 38.124 110.563 37.9053 110.947 37.468C111.331 37.02 111.523 36.348 111.523 35.452C111.523 34.556 111.331 33.8893 110.947 33.452C110.563 33.0147 110.057 32.796 109.427 32.796C108.798 32.796 108.291 33.0147 107.907 33.452C107.523 33.8893 107.331 34.556 107.331 35.452C107.331 36.348 107.518 37.02 107.891 37.468C108.275 37.9053 108.787 38.124 109.427 38.124ZM115.824 39.5V31.42H120.128C121.141 31.42 121.883 31.6067 122.352 31.98C122.821 32.3427 123.056 32.86 123.056 33.532C123.056 34.044 122.885 34.4707 122.544 34.812C122.203 35.1533 121.749 35.3667 121.184 35.452V35.228C121.877 35.2707 122.411 35.4733 122.784 35.836C123.157 36.1987 123.344 36.668 123.344 37.244C123.344 37.9373 123.077 38.4867 122.544 38.892C122.011 39.2973 121.253 39.5 120.272 39.5H115.824ZM117.68 38.268H120.064C120.533 38.268 120.891 38.172 121.136 37.98C121.392 37.788 121.52 37.5053 121.52 37.132C121.52 36.7587 121.392 36.476 121.136 36.284C120.891 36.092 120.533 35.996 120.064 35.996H117.68V38.268ZM117.68 34.764H119.888C120.315 34.764 120.645 34.6733 120.88 34.492C121.115 34.3 121.232 34.0333 121.232 33.692C121.232 33.3507 121.115 33.0893 120.88 32.908C120.645 32.7267 120.315 32.636 119.888 32.636H117.68V34.764ZM128.802 39.66C127.97 39.66 127.25 39.4893 126.642 39.148C126.034 38.8067 125.559 38.3213 125.218 37.692C124.887 37.0627 124.722 36.316 124.722 35.452C124.722 34.588 124.887 33.8467 125.218 33.228C125.559 32.5987 126.034 32.1133 126.642 31.772C127.25 31.4307 127.97 31.26 128.802 31.26C129.634 31.26 130.354 31.4307 130.962 31.772C131.58 32.1133 132.055 32.5987 132.386 33.228C132.727 33.8467 132.898 34.588 132.898 35.452C132.898 36.316 132.727 37.0627 132.386 37.692C132.055 38.3213 131.58 38.8067 130.962 39.148C130.354 39.4893 129.634 39.66 128.802 39.66ZM128.802 38.124C129.431 38.124 129.932 37.9053 130.306 37.468C130.679 37.02 130.866 36.348 130.866 35.452C130.866 34.556 130.679 33.8893 130.306 33.452C129.932 33.0147 129.431 32.796 128.802 32.796C128.172 32.796 127.671 33.0147 127.298 33.452C126.924 33.8893 126.738 34.556 126.738 35.452C126.738 36.348 126.924 37.02 127.298 37.468C127.671 37.9053 128.172 38.124 128.802 38.124ZM134.073 41.58V37.98H135.001C135.321 37.4787 135.55 36.892 135.689 36.22C135.838 35.5373 135.913 34.7053 135.913 33.724V31.42H142.137V37.98H143.449V41.58H141.753V39.5H135.769V41.58H134.073ZM136.793 37.996H140.265V32.924H137.609V34.172C137.609 34.8867 137.539 35.5853 137.401 36.268C137.262 36.9507 137.059 37.5267 136.793 37.996ZM148.694 39.66C147.862 39.66 147.131 39.4893 146.502 39.148C145.883 38.8067 145.403 38.3213 145.062 37.692C144.72 37.052 144.55 36.2947 144.55 35.42C144.55 34.5453 144.72 33.7987 145.062 33.18C145.414 32.5613 145.899 32.0867 146.518 31.756C147.136 31.4253 147.862 31.26 148.694 31.26C149.227 31.26 149.744 31.3453 150.246 31.516C150.758 31.676 151.174 31.9107 151.494 32.22L150.886 33.612C150.598 33.3453 150.272 33.148 149.91 33.02C149.558 32.8813 149.211 32.812 148.87 32.812C148.155 32.812 147.595 33.036 147.19 33.484C146.795 33.932 146.598 34.5827 146.598 35.436C146.598 36.2893 146.795 36.9453 147.19 37.404C147.595 37.8627 148.155 38.092 148.87 38.092C149.2 38.092 149.542 38.028 149.894 37.9C150.256 37.772 150.587 37.5747 150.886 37.308L151.494 38.684C151.163 38.9933 150.742 39.2333 150.23 39.404C149.728 39.5747 149.216 39.66 148.694 39.66ZM153.199 39.5V31.42H155.183V34.588H156.399L158.767 31.42H160.911L157.935 35.452L157.503 34.828C157.802 34.86 158.063 34.94 158.287 35.068C158.522 35.196 158.74 35.3773 158.943 35.612C159.156 35.836 159.364 36.124 159.567 36.476L161.263 39.5H159.135L157.759 37.068C157.62 36.8227 157.482 36.6307 157.343 36.492C157.204 36.3533 157.05 36.2573 156.879 36.204C156.708 36.1507 156.5 36.124 156.255 36.124H155.183V39.5H153.199ZM165.508 39.66C164.804 39.66 164.185 39.4947 163.652 39.164C163.119 38.8227 162.703 38.3373 162.404 37.708C162.105 37.0787 161.956 36.3267 161.956 35.452C161.956 34.5773 162.105 33.8307 162.404 33.212C162.703 32.5827 163.119 32.1027 163.652 31.772C164.185 31.4307 164.804 31.26 165.508 31.26C166.191 31.26 166.788 31.4307 167.3 31.772C167.823 32.1027 168.169 32.5507 168.34 33.116H168.164L168.34 31.42H170.26C170.228 31.7507 170.196 32.0867 170.164 32.428C170.143 32.7693 170.132 33.1053 170.132 33.436V39.5H168.148L168.132 37.836H168.324C168.153 38.3907 167.807 38.8333 167.284 39.164C166.761 39.4947 166.169 39.66 165.508 39.66ZM166.068 38.124C166.697 38.124 167.204 37.9053 167.588 37.468C167.972 37.02 168.164 36.348 168.164 35.452C168.164 34.556 167.972 33.8893 167.588 33.452C167.204 33.0147 166.697 32.796 166.068 32.796C165.439 32.796 164.932 33.0147 164.548 33.452C164.164 33.8893 163.972 34.556 163.972 35.452C163.972 36.348 164.159 37.02 164.532 37.468C164.916 37.9053 165.428 38.124 166.068 38.124ZM171.793 39.5L173.025 37.372C173.238 37.0093 173.499 36.7213 173.809 36.508C174.129 36.284 174.459 36.172 174.801 36.172H175.153L175.137 36.348C174.187 36.348 173.457 36.14 172.945 35.724C172.433 35.308 172.177 34.7 172.177 33.9C172.177 33.1107 172.438 32.5027 172.961 32.076C173.494 31.6387 174.273 31.42 175.297 31.42H179.313V39.5H177.489V36.652H176.577C176.246 36.652 175.953 36.7427 175.697 36.924C175.451 37.1053 175.243 37.34 175.073 37.628L174.017 39.5H171.793ZM175.681 35.356H177.489V32.716H175.681C175.137 32.716 174.726 32.8333 174.449 33.068C174.182 33.3027 174.049 33.6227 174.049 34.028C174.049 34.4547 174.182 34.7853 174.449 35.02C174.726 35.244 175.137 35.356 175.681 35.356ZM182.294 41.628L181.478 40.988C181.819 40.636 182.054 40.3053 182.182 39.996C182.32 39.6973 182.39 39.3773 182.39 39.036L182.822 39.5H181.318V37.276H183.558V38.748C183.558 39.292 183.462 39.788 183.27 40.236C183.088 40.6947 182.763 41.1587 182.294 41.628ZM190.061 39.5V37.98L193.805 34.076C194.274 33.5853 194.621 33.132 194.845 32.716C195.069 32.3 195.181 31.8733 195.181 31.436C195.181 30.892 195.01 30.4813 194.669 30.204C194.328 29.9267 193.832 29.788 193.181 29.788C192.658 29.788 192.157 29.884 191.677 30.076C191.197 30.2573 190.728 30.5453 190.269 30.94L189.597 29.404C190.056 28.9987 190.621 28.6733 191.293 28.428C191.976 28.1827 192.69 28.06 193.437 28.06C194.653 28.06 195.586 28.332 196.237 28.876C196.888 29.42 197.213 30.1987 197.213 31.212C197.213 31.916 197.048 32.588 196.717 33.228C196.386 33.8573 195.874 34.5187 195.181 35.212L192.061 38.332V37.788H197.661V39.5H190.061ZM203.207 39.66C201.884 39.66 200.865 39.1587 200.151 38.156C199.436 37.1427 199.079 35.7027 199.079 33.836C199.079 31.948 199.436 30.5133 200.151 29.532C200.865 28.5507 201.884 28.06 203.207 28.06C204.54 28.06 205.559 28.5507 206.263 29.532C206.977 30.5133 207.335 31.9427 207.335 33.82C207.335 35.6973 206.977 37.1427 206.263 38.156C205.559 39.1587 204.54 39.66 203.207 39.66ZM203.207 37.964C203.932 37.964 204.471 37.6333 204.823 36.972C205.175 36.3 205.351 35.2493 205.351 33.82C205.351 32.3907 205.175 31.356 204.823 30.716C204.471 30.0653 203.932 29.74 203.207 29.74C202.492 29.74 201.953 30.0653 201.591 30.716C201.239 31.356 201.063 32.3907 201.063 33.82C201.063 35.2493 201.239 36.3 201.591 36.972C201.953 37.6333 202.492 37.964 203.207 37.964ZM209.249 40.444H207.601L211.809 27.468H213.457L209.249 40.444ZM214.839 39.5V37.788H217.431V29.948H218.423L215.095 31.932V29.98L218.023 28.22H219.495V37.788H221.927V39.5H214.839Z" fill="black"/>
</svg>
